<svg width="28" height="28" viewBox="0 0 28 28" fill="none" xmlns="http://www.w3.org/2000/svg">
<rect x="0.4" y="0.4" width="27.2" height="27.2" rx="13.6" fill="#140F0B" stroke="#E68541" stroke-width="0.8"/>
<path d="M6.704 8.848V13H6.158V9.904L4.778 13H4.394L3.008 9.898V13H2.462V8.848H3.05L4.586 12.28L6.122 8.848H6.704ZM9.06397 13.054C8.75597 13.054 8.47597 12.984 8.22397 12.844C7.97597 12.704 7.77997 12.506 7.63597 12.25C7.49597 11.99 7.42597 11.69 7.42597 11.35C7.42597 11.014 7.49797 10.718 7.64197 10.462C7.78997 10.202 7.98997 10.004 8.24197 9.868C8.49397 9.728 8.77597 9.658 9.08797 9.658C9.39997 9.658 9.68197 9.728 9.93397 9.868C10.186 10.004 10.384 10.2 10.528 10.456C10.676 10.712 10.75 11.01 10.75 11.35C10.75 11.69 10.674 11.99 10.522 12.25C10.374 12.506 10.172 12.704 9.91597 12.844C9.65997 12.984 9.37597 13.054 9.06397 13.054ZM9.06397 12.574C9.25997 12.574 9.44397 12.528 9.61597 12.436C9.78797 12.344 9.92597 12.206 10.03 12.022C10.138 11.838 10.192 11.614 10.192 11.35C10.192 11.086 10.14 10.862 10.036 10.678C9.93197 10.494 9.79597 10.358 9.62797 10.27C9.45997 10.178 9.27797 10.132 9.08197 10.132C8.88197 10.132 8.69797 10.178 8.52997 10.27C8.36597 10.358 8.23397 10.494 8.13397 10.678C8.03397 10.862 7.98397 11.086 7.98397 11.35C7.98397 11.618 8.03197 11.844 8.12797 12.028C8.22797 12.212 8.35997 12.35 8.52397 12.442C8.68797 12.53 8.86797 12.574 9.06397 12.574ZM13.3039 13L12.0139 11.548V13H11.4679V8.56H12.0139V11.17L13.2799 9.712H14.0419L12.4939 11.35L14.0479 13H13.3039ZM14.3518 11.344C14.3518 11.008 14.4198 10.714 14.5558 10.462C14.6918 10.206 14.8778 10.008 15.1138 9.868C15.3538 9.728 15.6198 9.658 15.9118 9.658C16.1998 9.658 16.4498 9.72 16.6618 9.844C16.8738 9.968 17.0318 10.124 17.1358 10.312V9.712H17.6878V13H17.1358V12.388C17.0278 12.58 16.8658 12.74 16.6498 12.868C16.4378 12.992 16.1898 13.054 15.9058 13.054C15.6138 13.054 15.3498 12.982 15.1138 12.838C14.8778 12.694 14.6918 12.492 14.5558 12.232C14.4198 11.972 14.3518 11.676 14.3518 11.344ZM17.1358 11.35C17.1358 11.102 17.0858 10.886 16.9858 10.702C16.8858 10.518 16.7498 10.378 16.5778 10.282C16.4098 10.182 16.2238 10.132 16.0198 10.132C15.8158 10.132 15.6298 10.18 15.4618 10.276C15.2938 10.372 15.1598 10.512 15.0598 10.696C14.9598 10.88 14.9098 11.096 14.9098 11.344C14.9098 11.596 14.9598 11.816 15.0598 12.004C15.1598 12.188 15.2938 12.33 15.4618 12.43C15.6298 12.526 15.8158 12.574 16.0198 12.574C16.2238 12.574 16.4098 12.526 16.5778 12.43C16.7498 12.33 16.8858 12.188 16.9858 12.004C17.0858 11.816 17.1358 11.598 17.1358 11.35Z" fill="white"/>
<path d="M6.258 16.906C6.258 16.498 6.35 16.132 6.534 15.808C6.718 15.48 6.968 15.224 7.284 15.04C7.604 14.856 7.958 14.764 8.346 14.764C8.802 14.764 9.2 14.874 9.54 15.094C9.88 15.314 10.128 15.626 10.284 16.03H9.63C9.514 15.778 9.346 15.584 9.126 15.448C8.91 15.312 8.65 15.244 8.346 15.244C8.054 15.244 7.792 15.312 7.56 15.448C7.328 15.584 7.146 15.778 7.014 16.03C6.882 16.278 6.816 16.57 6.816 16.906C6.816 17.238 6.882 17.53 7.014 17.782C7.146 18.03 7.328 18.222 7.56 18.358C7.792 18.494 8.054 18.562 8.346 18.562C8.65 18.562 8.91 18.496 9.126 18.364C9.346 18.228 9.514 18.034 9.63 17.782H10.284C10.128 18.182 9.88 18.492 9.54 18.712C9.2 18.928 8.802 19.036 8.346 19.036C7.958 19.036 7.604 18.946 7.284 18.766C6.968 18.582 6.718 18.328 6.534 18.004C6.35 17.68 6.258 17.314 6.258 16.906ZM12.5308 19.054C12.2228 19.054 11.9428 18.984 11.6908 18.844C11.4428 18.704 11.2468 18.506 11.1028 18.25C10.9628 17.99 10.8928 17.69 10.8928 17.35C10.8928 17.014 10.9648 16.718 11.1088 16.462C11.2568 16.202 11.4568 16.004 11.7088 15.868C11.9608 15.728 12.2428 15.658 12.5548 15.658C12.8668 15.658 13.1488 15.728 13.4008 15.868C13.6528 16.004 13.8508 16.2 13.9948 16.456C14.1428 16.712 14.2168 17.01 14.2168 17.35C14.2168 17.69 14.1408 17.99 13.9888 18.25C13.8408 18.506 13.6388 18.704 13.3828 18.844C13.1268 18.984 12.8428 19.054 12.5308 19.054ZM12.5308 18.574C12.7268 18.574 12.9108 18.528 13.0828 18.436C13.2548 18.344 13.3928 18.206 13.4968 18.022C13.6048 17.838 13.6588 17.614 13.6588 17.35C13.6588 17.086 13.6068 16.862 13.5028 16.678C13.3988 16.494 13.2628 16.358 13.0948 16.27C12.9268 16.178 12.7448 16.132 12.5488 16.132C12.3488 16.132 12.1648 16.178 11.9968 16.27C11.8328 16.358 11.7008 16.494 11.6008 16.678C11.5008 16.862 11.4508 17.086 11.4508 17.35C11.4508 17.618 11.4988 17.844 11.5948 18.028C11.6948 18.212 11.8268 18.35 11.9908 18.442C12.1548 18.53 12.3348 18.574 12.5308 18.574ZM16.2727 16.162H15.5827V19H15.0367V16.162H14.6107V15.712H15.0367V15.478C15.0367 15.11 15.1307 14.842 15.3187 14.674C15.5107 14.502 15.8167 14.416 16.2367 14.416V14.872C15.9967 14.872 15.8267 14.92 15.7267 15.016C15.6307 15.108 15.5827 15.262 15.5827 15.478V15.712H16.2727V16.162ZM18.2473 16.162H17.5573V19H17.0113V16.162H16.5853V15.712H17.0113V15.478C17.0113 15.11 17.1053 14.842 17.2933 14.674C17.4853 14.502 17.7913 14.416 18.2113 14.416V14.872C17.9713 14.872 17.8013 14.92 17.7013 15.016C17.6053 15.108 17.5573 15.262 17.5573 15.478V15.712H18.2473V16.162ZM21.8839 17.23C21.8839 17.334 21.8779 17.444 21.8659 17.56H19.2379C19.2579 17.884 19.3679 18.138 19.5679 18.322C19.7719 18.502 20.0179 18.592 20.3059 18.592C20.5419 18.592 20.7379 18.538 20.8939 18.43C21.0539 18.318 21.1659 18.17 21.2299 17.986H21.8179C21.7299 18.302 21.5539 18.56 21.2899 18.76C21.0259 18.956 20.6979 19.054 20.3059 19.054C19.9939 19.054 19.7139 18.984 19.4659 18.844C19.2219 18.704 19.0299 18.506 18.8899 18.25C18.7499 17.99 18.6799 17.69 18.6799 17.35C18.6799 17.01 18.7479 16.712 18.8839 16.456C19.0199 16.2 19.2099 16.004 19.4539 15.868C19.7019 15.728 19.9859 15.658 20.3059 15.658C20.6179 15.658 20.8939 15.726 21.1339 15.862C21.3739 15.998 21.5579 16.186 21.6859 16.426C21.8179 16.662 21.8839 16.93 21.8839 17.23ZM21.3199 17.116C21.3199 16.908 21.2739 16.73 21.1819 16.582C21.0899 16.43 20.9639 16.316 20.8039 16.24C20.6479 16.16 20.4739 16.12 20.2819 16.12C20.0059 16.12 19.7699 16.208 19.5739 16.384C19.3819 16.56 19.2719 16.804 19.2439 17.116H21.3199ZM25.6046 17.23C25.6046 17.334 25.5986 17.444 25.5866 17.56H22.9586C22.9786 17.884 23.0886 18.138 23.2886 18.322C23.4926 18.502 23.7386 18.592 24.0266 18.592C24.2626 18.592 24.4586 18.538 24.6146 18.43C24.7746 18.318 24.8866 18.17 24.9506 17.986H25.5386C25.4506 18.302 25.2746 18.56 25.0106 18.76C24.7466 18.956 24.4186 19.054 24.0266 19.054C23.7146 19.054 23.4346 18.984 23.1866 18.844C22.9426 18.704 22.7506 18.506 22.6106 18.25C22.4706 17.99 22.4006 17.69 22.4006 17.35C22.4006 17.01 22.4686 16.712 22.6046 16.456C22.7406 16.2 22.9306 16.004 23.1746 15.868C23.4226 15.728 23.7066 15.658 24.0266 15.658C24.3386 15.658 24.6146 15.726 24.8546 15.862C25.0946 15.998 25.2786 16.186 25.4066 16.426C25.5386 16.662 25.6046 16.93 25.6046 17.23ZM25.0406 17.116C25.0406 16.908 24.9946 16.73 24.9026 16.582C24.8106 16.43 24.6846 16.316 24.5246 16.24C24.3686 16.16 24.1946 16.12 24.0026 16.12C23.7266 16.12 23.4906 16.208 23.2946 16.384C23.1026 16.56 22.9926 16.804 22.9646 17.116H25.0406Z" fill="white"/>
</svg>
